<svg width="40" height="40" viewBox="0 0 40 40" fill="none" xmlns="http://www.w3.org/2000/svg">
<circle cx="20" cy="20" r="20" fill="#9146FF"/>
<mask id="mask0" mask-type="alpha" maskUnits="userSpaceOnUse" x="0" y="0" width="40" height="40">
<circle cx="20" cy="20" r="19.5" fill="#C4C4C4" stroke="black"/>
</mask>
<g mask="url(#mask0)">
<path d="M12.599 11.5599C13.3712 6.82989 17.6107 5.51886 19.634 5.45459L29.5214 8.68934C30.1148 9.58907 31.2888 12.1597 31.2373 15.2445C31.1729 19.1005 32.5671 21.307 33.8968 24.2847C34.9606 26.6668 35.3124 29.2618 35.3553 30.2615L10.5615 29.5546C10.0682 28.9119 11.3336 26.5769 12.4275 23.6849C13.5213 20.7929 11.6339 17.4724 12.599 11.5599Z" fill="#2D150A"/>
<path fill-rule="evenodd" clip-rule="evenodd" d="M18.4554 5.05206C22.1369 7.0751 29.7015 11.3571 30.5079 12.3007C31.3142 13.2443 32.0591 12.2506 32.3308 11.6359C32.438 11.5 32.3479 10.8209 31.1298 9.19107C29.9595 7.62517 28.6559 6.10547 28.0863 5.46875C28.3102 5.38875 28.4705 5.17475 28.4705 4.92331C28.4705 4.60352 28.2112 4.34428 27.8915 4.34428C27.5717 4.34428 27.3124 4.60352 27.3124 4.92331C27.3124 4.95323 27.3147 4.98261 27.3191 5.0113C25.8824 4.29368 23.2383 3.30807 20.2998 3.20773C16.7827 3.08764 17.6048 4.38724 18.4554 5.05206Z" fill="#FFE4A4"/>
<path d="M0.821894 29.6286C2.36598 29.2511 13.9037 29.0853 19.4796 29.0496H22.9967C28.9371 29.3855 41.3713 30.1862 43.5845 30.7009C45.7977 31.2156 46.9801 33.3744 47.2946 34.3895C49.5178 43.075 54.0628 60.9478 54.4574 62.9551C54.852 64.9624 53.1493 65.2784 52.2485 65.1855H-12.7103L-19.6587 37.5849L-13.3537 35.3546L-5.78336 46.7637L-2.97398 35.3546C-2.35206 33.6032 -0.722191 30.006 0.821894 29.6286Z" fill="white" stroke="black" stroke-width="0.142689"/>
<path fill-rule="evenodd" clip-rule="evenodd" d="M31.3492 29.3576C27.7489 34.1167 20.3504 43.4707 17.1851 45.913C16.9778 46.1643 16.3616 46.1758 15.5552 44.2119C14.5916 41.865 11.7856 33.614 11.297 28.9414L5.93568 29.0704L1.52979 65.1643H41.29L40.1319 47.1835C39.453 45.0885 38.5053 38.758 40.0804 30.0648L31.3492 29.3576Z" fill="#CA6949"/>
<path d="M15.2417 22.7446C14.3152 22.1441 15.356 14.7597 15.9923 11.1425C17.6221 8.63767 22.8048 8.85498 25.1925 9.27675C26.462 10.5978 27.2941 13.2728 27.5515 14.4451C27.8431 14.2221 28.4164 14.0377 28.6666 13.9733C29.0455 14.0234 29.7818 14.3551 29.696 15.2815C29.6103 16.208 28.3021 16.9972 27.6587 17.276L23.6698 30.894C22.6576 34.2223 20.3171 34.9543 19.2735 34.9043C15.6363 35.4018 17.2004 27.6771 18.4371 23.7526C17.758 23.6668 16.1681 23.3451 15.2417 22.7446Z" fill="#CDA184"/>
<path d="M23.1744 23.9883C22.6254 24.1771 19.7859 23.9097 18.4349 23.7524L17.7915 26.1115H20.1505C22.3637 25.9914 23.4317 25.3466 23.6891 25.0392C23.7462 24.6103 23.7234 23.7996 23.1744 23.9883Z" fill="#A17059"/>
<path fill-rule="evenodd" clip-rule="evenodd" d="M19.778 12.7784C19.8338 12.7982 19.863 12.8595 19.8432 12.9153L18.3164 17.2162L18.3096 17.2267C18.2115 17.3789 18.1302 17.5951 18.1634 17.7688C18.1791 17.8504 18.2201 17.9247 18.3034 17.9843C18.3893 18.0457 18.5269 18.0963 18.7423 18.1125C18.8013 18.117 18.8456 18.1685 18.8411 18.2275C18.8367 18.2866 18.7852 18.3308 18.7261 18.3264C18.4869 18.3083 18.3069 18.2505 18.1786 18.1587C18.0478 18.0651 17.9781 17.9413 17.9528 17.8091C17.9052 17.5602 18.0154 17.2914 18.1225 17.1213L19.6411 12.8436C19.6609 12.7878 19.7222 12.7586 19.778 12.7784Z" fill="#7D503B"/>
<path d="M22.2091 13.5445C22.2091 13.6748 22.1035 13.7804 21.9732 13.7804C21.8429 13.7804 21.7373 13.6748 21.7373 13.5445C21.7373 13.4142 21.8429 13.3086 21.9732 13.3086C22.1035 13.3086 22.2091 13.4142 22.2091 13.5445Z" fill="#7D503B"/>
<path d="M17.5338 13.4586C17.5338 13.5888 17.4282 13.6945 17.2979 13.6945C17.1676 13.6945 17.062 13.5888 17.062 13.4586C17.062 13.3283 17.1676 13.2227 17.2979 13.2227C17.4282 13.2227 17.5338 13.3283 17.5338 13.4586Z" fill="#7D503B"/>
<path fill-rule="evenodd" clip-rule="evenodd" d="M17.5196 11.4035C17.3358 11.422 17.154 11.4861 17.0447 11.5391C16.9914 11.5649 16.9272 11.5427 16.9014 11.4894C16.8756 11.4361 16.8978 11.372 16.9511 11.3461C17.0777 11.2847 17.284 11.2116 17.4981 11.1901C17.7093 11.1688 17.9535 11.1957 18.1245 11.3668C18.1664 11.4087 18.1664 11.4765 18.1245 11.5184C18.0827 11.5603 18.0148 11.5603 17.9729 11.5184C17.8694 11.415 17.7061 11.3847 17.5196 11.4035Z" fill="#7D503B"/>
<path fill-rule="evenodd" clip-rule="evenodd" d="M22.3112 11.4054C22.1076 11.4265 21.9062 11.4994 21.7849 11.5598C21.7319 11.5862 21.6675 11.5646 21.6412 11.5116C21.6148 11.4586 21.6363 11.3942 21.6893 11.3678C21.8281 11.2987 22.0544 11.2164 22.2892 11.1921C22.5214 11.1681 22.787 11.199 22.972 11.389C23.0133 11.4314 23.0124 11.4993 22.97 11.5406C22.9276 11.582 22.8597 11.581 22.8184 11.5386C22.7009 11.418 22.5174 11.3841 22.3112 11.4054Z" fill="#7D503B"/>
<path fill-rule="evenodd" clip-rule="evenodd" d="M20.8664 19.6708C20.709 19.6723 20.4986 19.7161 20.2323 19.8206C19.7787 19.9985 19.2234 20.0707 18.7193 20.0906C18.2138 20.1105 17.7508 20.078 17.4769 20.0415C17.4182 20.0336 17.3769 19.9797 17.3847 19.921C17.3926 19.8623 17.4465 19.8211 17.5052 19.8289C17.7674 19.8639 18.218 19.8957 18.7108 19.8763C19.2049 19.8568 19.7327 19.7861 20.154 19.6209C20.4346 19.5109 20.6719 19.4582 20.8643 19.4563C21.0562 19.4545 21.2151 19.5036 21.3205 19.6107C21.4276 19.7197 21.4606 19.8695 21.4394 20.0275C21.4184 20.1841 21.344 20.3566 21.2256 20.5315C21.1924 20.5805 21.1257 20.5933 21.0766 20.5601C21.0276 20.5269 21.0148 20.4602 21.048 20.4112C21.1547 20.2537 21.2117 20.1125 21.2269 19.999C21.2419 19.8869 21.2159 19.8103 21.1675 19.7611C21.1174 19.71 21.0244 19.6693 20.8664 19.6708Z" fill="#7D503B"/>
<path fill-rule="evenodd" clip-rule="evenodd" d="M28.5661 15.0315C28.3238 15.1973 28.0607 15.4892 27.8917 15.7109C27.8559 15.758 27.7886 15.7671 27.7415 15.7312C27.6944 15.6953 27.6853 15.628 27.7212 15.5809C27.8954 15.3522 28.1748 15.0393 28.445 14.8545C28.5778 14.7637 28.7253 14.6918 28.8658 14.6936C28.9395 14.6946 29.0112 14.7159 29.0738 14.7641C29.1354 14.8115 29.1814 14.8796 29.2144 14.9632L29.217 14.9697L29.2187 14.9765C29.254 15.1177 29.1925 15.374 28.8646 15.5476C28.8122 15.5753 28.7473 15.5554 28.7196 15.503C28.6919 15.4507 28.7119 15.3858 28.7642 15.3581C29.0073 15.2294 29.0177 15.0746 29.0116 15.0338C28.9896 14.9809 28.965 14.951 28.9431 14.9341C28.9211 14.9172 28.8956 14.9085 28.863 14.9081C28.7909 14.9071 28.6896 14.947 28.5661 15.0315Z" fill="#92654E"/>
<circle cx="28.5568" cy="16.611" r="0.428913" fill="#FDF5DB"/>
</g>
</svg>
