<svg width="40" height="40" viewBox="0 0 40 40" fill="none" xmlns="http://www.w3.org/2000/svg">
<circle r="20" transform="matrix(-1 0 0 1 20 20)" fill="#38A413"/>
<mask id="mask0" mask-type="alpha" maskUnits="userSpaceOnUse" x="0" y="0" width="40" height="40">
<circle r="19.5" transform="matrix(-1 0 0 1 20 20)" fill="#C4C4C4" stroke="black"/>
</mask>
<g mask="url(#mask0)">
<path d="M43.0587 30.0029L24.6149 28.516L19.8967 27.9727C13.6534 28.0298 -0.102684 28.1843 -5.18116 28.3444C-10.2596 28.5045 -12.6731 32.7385 -13.245 34.8355L-16.562 53.0505C-12.7874 54.4917 -6.25824 55.6908 -3.46546 56.1102L-6.6967 95.5999H43.5448V95.4569L40.6853 54.4231C41.1199 54.4459 49.2543 52.6216 53.2671 51.7065C52.7143 47.6937 51.4199 38.8045 50.6649 35.3502C49.91 31.8959 45.2795 30.346 43.0587 30.0029Z" fill="#080808"/>
<path d="M17.2549 5.63547C13.8797 6.60583 13.3524 10.9619 13.5106 13.0186C13.0535 12.4912 11.9759 11.8109 11.322 13.3087C10.6681 14.8064 12.6844 17.0969 13.7742 18.055L15.0657 28.3982C15.0657 28.3982 15.9193 33.1181 19.6017 33.1181C22.2317 33.1181 23.135 30.0858 23.2669 28.3982V24.9899C25.7982 24.9477 26.642 24.0933 26.7475 23.6714L26.9584 21.5092C27.0112 18.7757 27.085 12.8604 26.9584 11.0674C26.8002 8.82605 25.5082 6.92752 24.7171 6.50563C23.9261 6.08374 21.4738 4.42253 17.2549 5.63547Z" fill="#FFDEC4"/>
<path d="M17.4841 24.6997C18.5389 25.0583 21.7909 25.0425 23.2852 24.9898V28.1803C21.6239 28.0045 18.0853 27.5317 17.2204 27.0465C16.1393 26.44 16.1657 24.2514 17.4841 24.6997Z" fill="#E6B38B"/>
<path fill-rule="evenodd" clip-rule="evenodd" d="M22.317 12.2298C22.2455 12.2432 22.1983 12.3121 22.2117 12.3837L23.451 19.0021C23.4518 19.0066 23.4529 19.011 23.4542 19.0153C23.4807 19.1049 23.4771 19.2303 23.3954 19.3274C23.3148 19.423 23.1293 19.5255 22.7169 19.5054C22.6441 19.5018 22.5823 19.5579 22.5788 19.6307C22.5752 19.7034 22.6313 19.7652 22.704 19.7688C23.1564 19.7908 23.4412 19.6823 23.5971 19.4972C23.7494 19.3163 23.7508 19.0951 23.709 18.9474L22.4709 12.3351C22.4575 12.2636 22.3886 12.2164 22.317 12.2298Z" fill="#E7B48D"/>
<circle r="0.395526" transform="matrix(-1 0 0 1 19.4868 13.2559)" fill="#845924"/>
<circle r="0.395526" transform="matrix(-1 0 0 1 25.1299 13.2559)" fill="#845924"/>
<path fill-rule="evenodd" clip-rule="evenodd" d="M12.6901 14.1812C12.9662 14.5804 13.2238 15.2183 13.3765 15.6894C13.3989 15.7587 13.4733 15.7966 13.5426 15.7742C13.6118 15.7517 13.6498 15.6774 13.6273 15.6081C13.4724 15.13 13.2053 14.4626 12.907 14.0312C12.8318 13.9225 12.7522 13.8251 12.669 13.7487C12.5867 13.673 12.494 13.6113 12.3921 13.5854C12.2852 13.5581 12.1762 13.5726 12.0756 13.6358C11.9796 13.6962 11.899 13.7958 11.8298 13.9255C11.8211 13.942 11.8159 13.9601 11.8146 13.9788C11.8098 14.0508 11.8085 14.166 11.8195 14.284C11.8301 14.3972 11.8538 14.5333 11.9108 14.6331C11.9469 14.6963 12.0275 14.7182 12.0907 14.6821C12.1539 14.646 12.1759 14.5655 12.1398 14.5022C12.1124 14.4543 12.0921 14.3663 12.0821 14.2593C12.0739 14.1719 12.0736 14.0854 12.0762 14.0248C12.1284 13.9332 12.1767 13.8837 12.2159 13.8591C12.254 13.8352 12.2884 13.8311 12.327 13.8409C12.3707 13.852 12.4257 13.8831 12.4906 13.9428C12.5546 14.0016 12.6217 14.0822 12.6901 14.1812Z" fill="#BF916C"/>
<path fill-rule="evenodd" clip-rule="evenodd" d="M25.3994 10.0228C25.6096 10.0689 25.8089 10.1725 25.9256 10.253C25.9856 10.2943 26.0677 10.2793 26.109 10.2193C26.1503 10.1594 26.1353 10.0773 26.0753 10.0359C25.9371 9.94065 25.7066 9.82018 25.4559 9.76519C25.2062 9.71046 24.9112 9.71601 24.6768 9.91135C24.6208 9.95797 24.6133 10.0411 24.6599 10.097C24.7065 10.153 24.7896 10.1605 24.8456 10.1139C24.9909 9.99284 25.188 9.97641 25.3994 10.0228Z" fill="#A87D4B"/>
<path fill-rule="evenodd" clip-rule="evenodd" d="M19.5986 9.74639C19.8088 9.79249 20.0081 9.89615 20.1248 9.97664C20.1848 10.018 20.2669 10.0029 20.3082 9.94296C20.3496 9.88302 20.3345 9.80092 20.2745 9.75958C20.1364 9.66428 19.9058 9.54381 19.6551 9.48883C19.4054 9.4341 19.1104 9.43964 18.876 9.63498C18.82 9.6816 18.8125 9.76473 18.8591 9.82067C18.9057 9.87661 18.9888 9.88417 19.0448 9.83755C19.1901 9.71648 19.3872 9.70005 19.5986 9.74639Z" fill="#A87D4B"/>
<path fill-rule="evenodd" clip-rule="evenodd" d="M19.1981 20.3275C19.2862 20.3252 19.4003 20.3595 19.533 20.4748C20.0283 20.9055 21.479 21.8259 22.1347 22.228C22.1967 22.2661 22.2779 22.2467 22.316 22.1846C22.354 22.1225 22.3346 22.0413 22.2725 22.0033C21.6098 21.5968 20.181 20.6889 19.706 20.2759C19.5354 20.1276 19.3595 20.0596 19.1913 20.0639C19.0236 20.0682 18.8812 20.144 18.7772 20.2501C18.5792 20.4519 18.4882 20.8062 18.6684 21.0585C18.896 21.3771 19.2675 21.6209 19.426 21.7048C19.4903 21.7389 19.5701 21.7143 19.6042 21.65C19.6382 21.5856 19.6137 21.5058 19.5493 21.4718C19.409 21.3975 19.0773 21.1772 18.883 20.9052C18.7995 20.7883 18.8271 20.5757 18.9654 20.4347C19.0295 20.3694 19.1095 20.3298 19.1981 20.3275Z" fill="#E7B48D"/>
<path fill-rule="evenodd" clip-rule="evenodd" d="M25.579 15.893C24.3584 15.893 23.3604 14.9397 23.289 13.7371C23.1056 13.7076 22.8531 13.6774 22.5975 13.6674C22.3125 13.6563 22.0418 13.6713 21.8574 13.729C21.79 14.9355 20.7903 15.893 19.567 15.893C18.3193 15.893 17.3042 14.8969 17.2737 13.6564L13.4448 12.7251C13.374 12.7079 13.3306 12.6366 13.3478 12.5658C13.365 12.4951 13.4363 12.4517 13.5071 12.4689L17.2826 13.3872C17.3895 12.2195 18.3714 11.3049 19.567 11.3049C20.7859 11.3049 21.7828 12.2556 21.8567 13.456C22.0784 13.4023 22.3523 13.394 22.6078 13.404C22.856 13.4136 23.1005 13.4414 23.2885 13.4701C23.3554 12.2631 24.3553 11.3049 25.579 11.3049C26.846 11.3049 27.873 12.332 27.873 13.599C27.873 14.8659 26.846 15.893 25.579 15.893ZM23.5486 13.599C23.5486 14.7203 24.4577 15.6293 25.579 15.6293C26.7003 15.6293 27.6094 14.7203 27.6094 13.599C27.6094 12.4776 26.7003 11.5686 25.579 11.5686C24.4577 11.5686 23.5486 12.4776 23.5486 13.599ZM17.5366 13.599C17.5366 14.7203 18.4457 15.6293 19.567 15.6293C20.6884 15.6293 21.5974 14.7203 21.5974 13.599C21.5974 12.4776 20.6884 11.5686 19.567 11.5686C18.4457 11.5686 17.5366 12.4776 17.5366 13.599Z" fill="#43270E"/>
<path fill-rule="evenodd" clip-rule="evenodd" d="M22.4809 20.4166C22.0442 20.0723 21.0701 19.3837 20.667 19.3837C20.441 19.3837 20.0324 19.2114 19.6142 19.0349C19.1002 18.818 18.5715 18.595 18.3492 18.6783C18.1668 18.7467 17.9999 18.6604 17.8181 18.5663C17.5981 18.4525 17.3564 18.3274 17.0392 18.4516C16.7214 18.5759 15.896 18.3669 15.1488 18.1777C14.5335 18.0218 13.9713 17.8795 13.7893 17.9477C13.5147 18.0507 13.6142 18.6096 13.7056 19.1227C13.7483 19.3628 13.7893 19.5929 13.7893 19.7616C13.7893 19.9802 13.8495 20.3621 13.913 20.7654C14.0033 21.3382 14.1004 21.954 14.0412 22.2053C13.9884 22.4297 14.0393 22.5365 14.0998 22.6634C14.1547 22.7788 14.2176 22.9107 14.2176 23.1627C14.2176 23.6917 15.7795 24.3468 15.9055 24.3216C16.0315 24.2964 16.8628 24.6491 17.0392 24.8002C17.2155 24.9514 18.576 25.1529 19.0798 25.1277C19.1996 25.1218 19.3421 25.1101 19.4922 25.0978C19.9736 25.0583 20.5326 25.0125 20.667 25.1277C20.8433 25.2789 22.2542 25.2033 22.3297 25.1277C22.4053 25.0522 23.2619 24.9514 23.3123 25.1277C23.3627 25.3041 24.3452 25.2789 24.5971 25.1277C24.7187 25.0548 25.0457 24.9818 25.36 24.9117C25.6969 24.8365 26.0192 24.7646 26.0583 24.6995C26.0816 24.6606 26.1914 24.5737 26.329 24.4647C26.6372 24.2207 27.0853 23.8659 27.0156 23.6917C26.9149 23.4398 26.8897 23.2131 27.0156 22.7092C27.1164 22.3061 27.0576 21.6343 27.0156 21.3488C26.9821 21.122 26.8846 20.6686 26.7637 20.6686C26.7332 20.6686 26.6575 20.6737 26.5519 20.6809C26.1346 20.7092 25.2512 20.7691 24.849 20.6686C24.3452 20.5426 23.8413 20.4166 23.6398 20.5426C23.4382 20.6686 22.6321 20.5331 22.4809 20.4166ZM23.5648 21.7266C22.2463 21.0716 19.554 19.7112 19.3323 19.5096C19.0552 19.2577 17.7703 19.3585 17.8459 20.4166C17.9215 21.4747 18.8788 22.5328 19.1056 22.6336C19.3323 22.7343 21.8768 23.6161 22.8845 23.2382C23.8923 22.8603 23.7411 21.9282 23.5648 21.7266Z" fill="#A17743"/>
<path fill-rule="evenodd" clip-rule="evenodd" d="M14.9496 40.1054C15.4986 37.8635 16.3984 38.8472 16.7797 39.6192L16.7797 39.6202L16.7807 39.619C17.0094 38.7898 17.5813 39.1043 17.7815 39.5047C17.9499 39.8413 18.7654 42.4635 19.3607 44.3774C19.4732 44.7392 19.5779 45.0757 19.6688 45.3666C20.1263 46.8307 20.6982 46.0529 20.927 45.481C21.0604 45.0902 21.5217 44.2057 22.2995 43.7939C23.0773 43.3821 23.1002 44.1561 23.0144 44.5946C22.4902 46.215 21.2701 49.8561 20.5838 51.4574C19.726 53.459 23.5577 56.1756 28.4189 58.3774C32.263 60.1186 40.5032 63.6424 44.2736 65.2423L44.4025 65.269L52.4663 75.1343C51.0022 78.5657 46.5376 78.9851 44.4883 78.7659C26.7022 72.9611 17.2944 58.4634 14.9496 54.5173C13.0738 51.3604 12.5858 45.5765 12.5762 43.0792C12.6239 42.8219 12.7764 42.2214 13.0052 41.8783C13.2339 41.5351 13.5961 41.9259 13.7486 42.1642C13.9545 39.5563 14.6351 39.705 14.9496 40.1054Z" fill="#FFDEC4"/>
</g>
</svg>
